# File created by Blade
# Date/Time:  Mon Sep 22 16:09:39 2014
# Frame Rate: 120.000 fps
#------------------------------------------------------
:FULLY-SPECIFIED
:DEGREES
2986
root 2.317564 36.952540 3.361209 4.580763 -7.702519 1.249907
RightUpLeg 4.572743 -2.459408 -2.083236
RightLeg -5.409912 -0.000000 0.000000
RightFoot -13.346027 -14.585552 15.884978
RightToeBase 14.192059 -0.000000 -0.000000
LeftUpLeg 4.053207 4.753140 2.055573
LeftLeg -3.161580 -0.000000 0.000000
LeftFoot -11.260553 14.228946 -18.205793
LeftToeBase 9.478404 -0.000000 -0.000000
Spine -4.935672 -12.708089 -1.530591
RightShoulder -9.973849 -21.431970 -1.598761
RightArm 11.920050 43.130469 93.037436
RightForeArm 89.714004 -0.000000 93.819829
RightHand 20.071333 0.000000 -28.135921
RightHandThumb1 -24.326973 -0.000000 -32.862282
LeftShoulder -27.739263 39.947751 -5.258633
LeftArm 41.345198 14.554797 -72.683912
LeftForeArm 17.091992 -0.000000 26.709736
LeftHand -13.204318 0.000000 -7.111848
LeftHandThumb1 -26.253704 0.000000 33.147579
Head 15.069818 1.878042 10.770099
2987
root 2.319282 36.953314 3.361911 4.601609 -7.685001 1.257535
RightUpLeg 4.552390 -2.465445 -2.088648
RightLeg -5.406247 -0.000000 0.000000
RightFoot -13.352243 -14.646142 15.818674
RightToeBase 14.233595 -0.000000 -0.000000
LeftUpLeg 4.030389 4.734935 2.044550
LeftLeg -3.161772 -0.000000 0.000000
LeftFoot -11.248091 14.228758 -18.197001
LeftToeBase 9.436352 -0.000000 -0.000000
Spine -4.964552 -12.656906 -1.525974
RightShoulder -9.992673 -21.449372 -1.596045
RightArm 11.952127 43.206906 93.019891
RightForeArm 89.739598 -0.000000 93.803566
RightHand 20.327759 -0.000000 -27.927853
RightHandThumb1 -24.326973 -0.000000 -32.862282
LeftShoulder -27.727513 39.939768 -5.243476
LeftArm 41.383948 14.599538 -72.661001
LeftForeArm 17.131494 -0.000000 26.715512
LeftHand -13.244963 -0.000000 -7.143522
LeftHandThumb1 -26.253704 0.000000 33.147579
Head 15.061971 1.850298 10.776814
2988
root 2.319114 36.953994 3.361600 4.627222 -7.670293 1.253010
RightUpLeg 4.537594 -2.387827 -2.077221
RightLeg -5.452766 -0.000000 0.000000
RightFoot -13.313376 -14.743312 15.874152
RightToeBase 14.124213 -0.000000 -0.000000
LeftUpLeg 3.999599 4.751813 2.047955
LeftLeg -3.156549 -0.000000 0.000000
LeftFoot -11.240896 14.210450 -18.195969
LeftToeBase 9.456783 -0.000000 -0.000000
Spine -4.992731 -12.615557 -1.505608
RightShoulder -9.999172 -21.401636 -1.575232
RightArm 11.978980 43.414143 93.054401
RightForeArm 89.563385 0.000000 93.902131
RightHand 19.925040 -0.000000 -28.474782
RightHandThumb1 -24.326973 -0.000000 -32.862282
LeftShoulder -27.726466 39.915079 -5.235133
LeftArm 41.391716 14.638763 -72.633134
LeftForeArm 17.138642 -0.000000 26.745054
LeftHand -13.241984 -0.000000 -7.191582
LeftHandThumb1 -26.253704 0.000000 33.147579
Head 15.051424 1.839040 10.780101
2989
root 2.321732 36.954431 3.364353 4.640459 -7.646508 1.261196
RightUpLeg 4.524172 -2.465680 -2.092323
RightLeg -5.417008 -0.000000 0.000000
RightFoot -13.341423 -14.691382 15.799868
RightToeBase 14.234769 -0.000000 -0.000000
LeftUpLeg 3.986021 4.745540 2.036093
LeftLeg -3.159787 -0.000000 0.000000
LeftFoot -11.222850 14.203172 -18.171616
LeftToeBase 9.435330 -0.000000 -0.000000
Spine -5.016251 -12.591477 -1.490249
RightShoulder -10.003040 -21.382450 -1.585963
RightArm 12.022347 43.572123 93.088071
RightForeArm 89.558278 -0.000000 93.902227
RightHand 19.973944 -0.000000 -28.514685
RightHandThumb1 -24.326973 -0.000000 -32.862282
LeftShoulder -27.735447 39.900470 -5.240198
LeftArm 41.400538 14.670985 -72.616872
LeftForeArm 17.161434 0.000000 26.762083
LeftHand -13.257262 -0.000000 -7.201246
LeftHandThumb1 -26.253704 0.000000 33.147579
Head 15.037927 1.838180 10.779570
2990
root 2.324120 36.954389 3.365957 4.659802 -7.619787 1.274983
RightUpLeg 4.514965 -2.432841 -2.103661
RightLeg -5.449943 -0.000000 0.000000
RightFoot -13.321594 -14.739964 15.858995
RightToeBase 14.148193 -0.000000 -0.000000
LeftUpLeg 3.957636 4.730930 2.018888
LeftLeg -3.149895 -0.000000 0.000000
LeftFoot -11.239600 14.189366 -18.201316
LeftToeBase 9.446281 -0.000000 -0.000000
Spine -5.042745 -12.583187 -1.485207
RightShoulder -9.990451 -21.339030 -1.609829
RightArm 11.955821 43.722568 93.052717
RightForeArm 89.602157 -0.000000 93.918747
RightHand 20.011933 -0.000000 -28.422006
RightHandThumb1 -24.326973 -0.000000 -32.862282
LeftShoulder -27.764473 39.894984 -5.250961
LeftArm 41.409349 14.686535 -72.613313
LeftForeArm 17.180468 -0.000000 26.781294
LeftHand -13.253819 -0.000000 -7.222083
LeftHandThumb1 -26.253704 0.000000 33.147579
Head 15.009927 1.837210 10.800021
2991
root 2.326489 36.954567 3.368354 4.675015 -7.586497 1.279602
RightUpLeg 4.509363 -2.419334 -2.106925
RightLeg -5.454441 -0.000000 0.000000
RightFoot -13.328356 -14.820975 15.796266
RightToeBase 14.184289 -0.000000 -0.000000
LeftUpLeg 3.932981 4.720568 2.011165
LeftLeg -3.136123 -0.000000 0.000000
LeftFoot -11.225287 14.177492 -18.184895
LeftToeBase 9.406311 -0.000000 -0.000000
Spine -5.062040 -12.582671 -1.461812
RightShoulder -9.998506 -21.303573 -1.621597
RightArm 11.944082 43.902406 93.056289
RightForeArm 89.596868 0.000000 93.941063
RightHand 19.975906 -0.000000 -28.438377
RightHandThumb1 -24.326973 -0.000000 -32.862282
LeftShoulder -27.788880 39.882573 -5.264057
LeftArm 41.400400 14.698677 -72.613577
LeftForeArm 17.191569 -0.000000 26.798556
LeftHand -13.199716 0.000000 -7.162517
LeftHandThumb1 -26.253704 0.000000 33.147579
Head 14.983516 1.841114 10.799203
